<?xml version="1.0" encoding="utf-8"?>
<!-- Generator: Adobe Illustrator 18.1.1, SVG Export Plug-In . SVG Version: 6.00 Build 0)  -->
<svg version="1.1" id="Layer_1" xmlns="http://www.w3.org/2000/svg" xmlns:xlink="http://www.w3.org/1999/xlink" x="0px" y="0px"
	 viewBox="0 0 100.8 156.3" enable-background="new 0 0 100.8 156.3" xml:space="preserve">
<path fill="#32656D" d="M50.5,156.3c0,0-3.5-37.4-39.3-74.2l39.1-0.6"/>
<path fill="#32656D" d="M50.3,156.3c0,0,3.5-37.4,39.3-74.2l-39.1-0.6"/>
<g>
	<g>
		<circle fill="#FFFFFF" cx="50.4" cy="50.4" r="46.4"/>
		<path fill="#32656D" d="M50.4,100.8C22.6,100.8,0,78.2,0,50.4C0,22.6,22.6,0,50.4,0s50.4,22.6,50.4,50.4
			C100.8,78.2,78.2,100.8,50.4,100.8z M50.4,8C27,8,8,27,8,50.4c0,23.4,19,42.4,42.4,42.4s42.4-19,42.4-42.4C92.8,27,73.8,8,50.4,8z
			"/>
	</g>
	<g id="BzlDT8.tif">
		<g>
			<g>
				<path fill="#ED906B" d="M48.9,73.5H29.5c-0.4,0-0.6-0.5-0.3-0.7c2.1-1.8,4.1-3.5,6-5.1c-0.3-0.6-0.2-0.5-0.5-1l-3.7,1
					c-0.3-0.7-0.2-0.5-0.4-1.1c1.2-0.6,2.5-1.2,3.7-1.7c1.6-0.7,2.4-1.5,2.2-3.3c-0.2-1.8-0.1-3.7,0-5.7c0-0.2-0.2-0.4-0.4-0.4h-4.4
					c-0.3,0-0.5-0.3-0.4-0.6c0.9-2.2,1.8-4.2,2.4-6.3c1.1-3.8,2-7.7,3-11.5c0.3-1,0.6-2,1-3.3c0.1-0.4,0.7-0.4,0.8,0
					c1.3,4.2,2.6,8.2,3.8,12.1c0,0.1,0,0.2,0,0.3c-0.9,1.9,0.6,3.3,1.5,4.9c0.2,0.3,0.6,0.3,0.7,0c1-2.4,1.9-4.9,3-7.5
					c0.1-0.3-0.1-0.6-0.4-0.6h-0.2c-0.3,0-0.5-0.3-0.4-0.5c1.5-5,3-10,4.7-15.4c0.1-0.4,0.7-0.4,0.8,0c1.9,6.1,3.8,11.9,5.6,17.8
					c0.1,0.3-0.2,0.6-0.5,0.5l0,0c-0.3-0.1-0.6,0.2-0.5,0.6c0.8,2,1.7,3.9,2.5,6c0.1,0.3,0.6,0.3,0.7,0c1-2.1,2.2-4,2.1-5.9
					c-0.1-4,2-7.3,2.7-11c0-0.2,0.1-0.5,0.2-0.8c0.1-0.4,0.7-0.4,0.8,0c0.7,2.2,1.4,4.2,2,6.2c0.5,1.5,1.4,3,1.4,4.6
					c0,3.7,1.9,6.8,3.2,10.2c0.1,0.3-0.1,0.5-0.4,0.5h-4.4c-0.2,0-0.4,0.2-0.4,0.4c0,2.6,0,5.1,0.1,7.5c0,0.4,0.7,0.8,1.1,1.1
					c1.3,0.7,2.5,1.4,3.8,2.1c0.4,0.2,0.2,0.9-0.3,0.7c-5.6-1.5-11.3-2.3-17.3-2.5c-0.2,0-0.4,0.2-0.4,0.4v3.3
					c0,0.2-0.2,0.4-0.4,0.4h-3.9c-0.2,0-0.4-0.2-0.4-0.4v-3.4c0-0.2-0.2-0.4-0.4-0.4c-1.2,0.1-2.2,0-3,0.5c-2.7,1.5-2.8,3.2-0.2,5
					c0.7,0.5,1.5,1,2.3,1.4c0.4,0.2,0.7,0.4,1.2,0.7C49.5,72.9,49.3,73.5,48.9,73.5z M54.2,58v3.9c0,0.2,0.2,0.4,0.4,0.4
					c2.9,0.4,5.8,0.7,8.7,1.1c0.2,0,0.5-0.2,0.5-0.4v-6.6c0-0.2-0.2-0.4-0.4-0.4h-1.6c-0.2,0-0.4,0.2-0.4,0.5c0,0.2,0.1,0.5,0.1,0.7
					c0,0.2-0.2,0.5-0.4,0.5h-6.3C54.4,57.6,54.2,57.7,54.2,58z M49.3,61.8v-3.9c0-0.2-0.2-0.4-0.4-0.4h-6.3c-0.3,0-0.5-0.2-0.4-0.5
					c0.1-0.4,0.2-0.7,0.3-1.1c0.1-0.3-0.1-0.5-0.4-0.5h-1.7c-0.2,0-0.4,0.2-0.4,0.4v6.8c0,0.2,0.2,0.4,0.4,0.4
					c2.9-0.3,5.6-0.5,8.5-0.8C49.1,62.2,49.3,62.1,49.3,61.8z"/>
			</g>
		</g>
	</g>
</g>
</svg>
