<?xml version="1.0" encoding="utf-8"?>
<!-- Generator: Adobe Illustrator 18.1.1, SVG Export Plug-In . SVG Version: 6.00 Build 0)  -->
<svg version="1.1" id="Layer_1" xmlns="http://www.w3.org/2000/svg" xmlns:xlink="http://www.w3.org/1999/xlink" x="0px" y="0px"
	 viewBox="0 0 100.8 156.3" enable-background="new 0 0 100.8 156.3" xml:space="preserve">
<path fill="#32656D" d="M50.5,156.3c0,0-3.5-37.4-39.3-74.2l39.1-0.6"/>
<path fill="#32656D" d="M50.3,156.3c0,0,3.5-37.4,39.3-74.2l-39.1-0.6"/>
<g>
	<g>
		<circle fill="#FFFFFF" cx="50.4" cy="50.4" r="46.4"/>
		<path fill="#32656D" d="M50.4,100.8C22.6,100.8,0,78.2,0,50.4C0,22.6,22.6,0,50.4,0s50.4,22.6,50.4,50.4
			C100.8,78.2,78.2,100.8,50.4,100.8z M50.4,8C27,8,8,27,8,50.4c0,23.4,19,42.4,42.4,42.4s42.4-19,42.4-42.4C92.8,27,73.8,8,50.4,8z
			"/>
	</g>
	<g id="_x33_5bFQk.tif">
		<g>
			<g>
				<path fill="#ED906B" d="M55.7,50.3c-0.9-0.9-1.6-1.6-2.4-2.4c0.5-0.5,0.8-0.9,1.2-1.3c7-7,9.4-9.4,16.3-16.3
					c0.6-0.6,1.3-1.3,2.1-1.7c2.2-1.3,4.7-0.8,6.3,1.1c1.5,1.8,1.6,4.4,0,6.3c-0.5,0.6-1,1.1-1.5,1.6C65.8,49.7,53.7,61.8,41.6,73.9
					c-2.3,2.3-4,2.6-5.6,1c-1.6-1.6-1.3-3.5,0.9-5.7c4.3-4.3,8.5-8.5,12.8-12.8C50.1,56,55.1,50.9,55.7,50.3z"/>
			</g>
			<g>
				<path fill="#ED906B" d="M31.9,43.8l3-3c-0.8-0.8-1.6-1.6-2.4-2.4c-2.3-2.3-4.6-4.6-6.9-6.9c-0.6-0.6-1.5-1.3-0.6-2.1
					c0.9-0.9,1.5,0.1,2.1,0.7c2.7,2.6,5.3,5.3,7.9,7.9c0.4,0.4,0.9,0.9,1.4,1.4l3.1-3.1c-0.4-0.4-0.8-0.8-1.3-1.3
					c-2.7-2.7-5.5-5.4-8.1-8.2c0-0.1-0.1-0.1-0.1-0.2c-0.5-0.9,0.4-2,1.4-1.6c0.1,0,0.1,0.1,0.2,0.1c4.4,4.2,8.7,8.5,12.9,12.9
					c1.9,1.9,1.9,3.6,0.4,6.4c0.4,0.4,0.8,0.8,1.3,1.3c7.4,7.4,14.8,14.8,22.1,22.1c0.5,0.5,1,1,1.4,1.5c1,1.3,0.9,2.9-0.1,4.1
					c-1.1,1.2-2.6,1.5-4,0.7c-0.7-0.4-1.3-1-1.8-1.5c-7.4-7.4-14.8-14.8-22.1-22.1c-0.4-0.4-0.9-0.9-1.3-1.3
					c-3.5,1.7-4.7,1.5-7.4-1.2c-3.8-3.8-7.6-7.6-11.4-11.4c-0.2-0.2-0.4-0.4-0.6-0.6c-0.8-1.3,0.5-2.3,1.4-1.7c0,0,0.1,0.1,0.1,0.1
					c1.1,0.8,2,1.9,3,2.9C27.5,39.3,29.6,41.5,31.9,43.8z"/>
			</g>
		</g>
	</g>
</g>
</svg>
