<?xml version="1.0" encoding="utf-8"?>
<!-- Generator: Adobe Illustrator 18.1.1, SVG Export Plug-In . SVG Version: 6.00 Build 0)  -->
<svg version="1.1" id="Layer_1" xmlns="http://www.w3.org/2000/svg" xmlns:xlink="http://www.w3.org/1999/xlink" x="0px" y="0px"
	 viewBox="0 0 208.4 165.1" enable-background="new 0 0 208.4 165.1" xml:space="preserve">
<g>
	<polygon fill="#BA5D3C" points="1.2,83.8 28.5,71.2 23.6,85.8 	"/>
	<polygon fill="#BA5D3C" points="205.5,82.8 178.2,70.2 183.1,84.8 	"/>
	<circle fill="#FFFFFF" stroke="#32656D" stroke-width="8" stroke-miterlimit="10" cx="104.2" cy="82.2" r="76.5"/>
	<g id="ti1QEw.tif">
		<g>
			<path fill="#32656D" d="M122.9,18.2c1.2,0,2.2,0.9,2.3,2.1c1.4,14.7,3.2,29,3.6,43.3c0.4,11.6-5.4,20.5-16.8,24.5
				c-4.8,1.7-6.8,5-6.9,9.6c-0.2,13.5-0.3,27.1,0.1,40.6c0.1,1.8,2.7,4.7,4.7,5.2c4.2,1.1,9.6,1.2,13.9,2.2c0.4,0.1,0.4,0.3,0.2,0.5
				c-13.2,0-26.5,0-39.7,0c0,0-0.3-0.3,0-0.7c4.3-0.5,8.7-1.1,13-1.6c5.1-0.6,6-3.6,5.9-9.8l0-36.6c-0.3-6.2,0.1-7-8-9.9
				c-10.3-3.8-16-12.3-15.6-22.9c0.5-14.6,2.7-29.2,4.3-43.8c0.1-1,1.8-2.6,2.8-2.6C98.5,18.1,110.1,18.2,122.9,18.2z M104.7,21.4
				c-4.6,0-9.3,0.2-13.9-0.1c-3.3-0.2-5.1,0.9-5.4,4.3c-1.2,12.1-3.1,24.2-3.5,36.3c-0.5,13.6,9.7,23.8,22.4,23.7
				c12.7,0,22.6-10.3,22.3-23.9c-0.2-9.8-1-19.7-2.6-29.4c-2.2-13.3,0.5-10.7-12.9-11C108.9,21.3,106.8,21.4,104.7,21.4z"/>
			<path fill="#32656D" d="M84.7,53c13.1,0,26,0,39,0c2.7,9.9-0.1,20-7.5,25.4c-6.7,5-15.8,5.3-22.8,0.9
				C85.5,74.3,82.4,65.5,84.7,53z"/>
		</g>
	</g>
	<path fill="#ED906B" d="M203.4,125H5c-2.8,0-5-2.2-5-5V87.2c0-2.8,2.2-5,5-5h198.4c2.8,0,5,2.2,5,5V120
		C208.4,122.7,206.2,125,203.4,125z"/>
	<g>
		<path fill="#FFFFFF" d="M29.5,91.7h7.7c1.6,0,3,0.2,4.3,0.7c1.3,0.4,2.3,1.1,3.2,2c0.9,0.9,1.5,2,2,3.4c0.5,1.4,0.7,3,0.7,4.8
			c0,1.9-0.3,3.5-0.8,4.9c-0.5,1.4-1.2,2.6-2.2,3.5c-0.9,0.9-2.1,1.6-3.5,2.1c-1.4,0.5-2.9,0.7-4.6,0.7h-7V91.7z M36.7,111.3
			c2.7,0,4.7-0.8,6-2.3s1.9-3.6,1.9-6.3c0-1.3-0.1-2.5-0.4-3.6c-0.3-1-0.7-1.9-1.3-2.7c-0.6-0.7-1.3-1.3-2.3-1.7
			c-0.9-0.4-2-0.6-3.3-0.6h-4.9v17.1H36.7z"/>
		<path fill="#FFFFFF" d="M57.2,91.7h3l8.5,22h-3.1l-2.3-6.1h-9.4l-2.3,6.1h-3L57.2,91.7z M62.5,105.1l-3.9-10.2l-3.8,10.2H62.5z"/>
		<path fill="#FFFFFF" d="M73.8,94.2h-7.3v-2.5H84v2.5h-7.3v19.5h-2.9V94.2z"/>
		<path fill="#FFFFFF" d="M87,91.7h14.3v2.5H89.8v6.9h10.8v2.5H89.8v7.6h12l-0.5,2.5H87V91.7z"/>
		<path fill="#FFFFFF" d="M105.3,91.7H119v2.5h-10.8v7.3h10.2v2.6h-10.2v9.8h-2.9V91.7z"/>
		<path fill="#FFFFFF" d="M131.8,114.3c-1.5,0-2.9-0.3-4.1-0.8c-1.2-0.5-2.3-1.2-3.2-2.2c-0.9-1-1.6-2.2-2.1-3.6
			c-0.5-1.4-0.7-3.1-0.7-4.9s0.3-3.5,0.8-4.9c0.5-1.4,1.2-2.7,2.1-3.6c0.9-1,2-1.7,3.2-2.3c1.2-0.5,2.6-0.8,4.1-0.8
			c1.5,0,2.9,0.3,4.1,0.8c1.2,0.5,2.3,1.2,3.2,2.2s1.6,2.2,2.1,3.6c0.5,1.4,0.7,3.1,0.7,4.9c0,1.9-0.2,3.5-0.7,5
			c-0.5,1.5-1.2,2.7-2.1,3.7s-1.9,1.7-3.2,2.3C134.8,114,133.4,114.3,131.8,114.3z M131.8,111.8c1.2,0,2.2-0.2,3.1-0.6
			c0.9-0.4,1.6-1,2.2-1.8c0.6-0.8,1-1.7,1.4-2.9c0.3-1.1,0.5-2.4,0.5-3.8c0-1.4-0.2-2.6-0.5-3.7c-0.3-1.1-0.8-2.1-1.4-2.9
			c-0.6-0.8-1.4-1.4-2.2-1.9c-0.9-0.4-1.9-0.6-3.1-0.6c-1.2,0-2.2,0.2-3.1,0.6c-0.9,0.4-1.6,1-2.3,1.9c-0.6,0.8-1.1,1.8-1.4,2.9
			c-0.3,1.1-0.4,2.4-0.4,3.7c0,1.4,0.1,2.6,0.4,3.8c0.3,1.1,0.7,2.1,1.3,2.9s1.3,1.4,2.2,1.8C129.6,111.6,130.6,111.8,131.8,111.8z"
			/>
		<path fill="#FFFFFF" d="M146.1,91.7h7.2c1.6,0,3,0.2,4,0.6c1,0.4,1.9,0.8,2.5,1.4c0.6,0.6,1,1.2,1.2,2c0.2,0.7,0.3,1.5,0.3,2.3
			c0,1.4-0.3,2.6-0.9,3.6c-0.6,1-1.5,1.8-2.9,2.3l4.6,9.9h-3.2l-4.2-9.2c-0.3,0-0.6,0.1-0.9,0.1c-0.3,0-0.6,0-0.8,0h-4.4v9.1h-2.8
			V91.7z M153.6,102.1c1,0,1.8-0.1,2.4-0.3c0.6-0.2,1.1-0.5,1.5-0.8c0.4-0.4,0.6-0.8,0.8-1.3c0.1-0.5,0.2-1.1,0.2-1.7
			c0-0.6-0.1-1.2-0.2-1.6c-0.2-0.5-0.4-0.9-0.9-1.2c-0.4-0.3-0.9-0.6-1.6-0.8c-0.7-0.2-1.5-0.3-2.6-0.3h-4.3v8H153.6z"/>
		<path fill="#FFFFFF" d="M170.4,94.2h-7.3v-2.5h17.4v2.5h-7.3v19.5h-2.9V94.2z"/>
	</g>
</g>
</svg>
